<svg xmlns="http://www.w3.org/2000/svg" viewBox="0 0 206.26 214.28"><defs><style>.cls-1{fill:#8cc63f;}.cls-2{fill:none;}</style></defs><g id="Layer_2" data-name="Layer 2"><g id="Layer_1-2" data-name="Layer 1"><path class="cls-1" d="M174.7,206.25H31.56A31.56,31.56,0,0,1,0,174.69V31.56A31.56,31.56,0,0,1,31.56,0H174.7a31.56,31.56,0,0,1,31.56,31.56V174.7A31.57,31.57,0,0,1,174.7,206.25Z"/><rect class="cls-2" x="22.75" y="25.74" width="162.63" height="188.54"/><path d="M139,153.83,132.24,136H74.62l-6.77,18.18q-4,10.64-6.77,14.36T51.9,172.3a13.47,13.47,0,0,1-9.57-4,12.14,12.14,0,0,1-4.16-9,19.87,19.87,0,0,1,1-6c.64-2.06,1.71-4.93,3.19-8.6l36.25-92q1.55-4,3.72-9.52A48.22,48.22,0,0,1,86.94,34,18.84,18.84,0,0,1,93.42,28a19.9,19.9,0,0,1,9.91-2.27,20.17,20.17,0,0,1,10,2.27,19.46,19.46,0,0,1,6.48,5.85A41.54,41.54,0,0,1,124,41.56q1.69,4.11,4.3,11l37,91.46q4.35,10.44,4.35,15.18a12.56,12.56,0,0,1-4.11,9,13.5,13.5,0,0,1-9.91,4.11,12.77,12.77,0,0,1-5.8-1.21,11.85,11.85,0,0,1-4.06-3.29,30.24,30.24,0,0,1-3.53-6.38C141,158.55,139.91,156,139,153.83ZM82.17,114.48h42.35L103.15,56Z"/><ellipse class="cls-1" cx="71.65" cy="51.6" rx="16.2" ry="17.86"/><ellipse class="cls-1" cx="55.51" cy="88.13" rx="22.5" ry="25.87"/></g></g></svg>